<svg
  xmlns="http://www.w3.org/2000/svg"
  width="64"
  height="64"
  viewBox="0 0 64 64"
  fill="none"
>
  <defs>
    <linearGradient
      id="nimomark-favicon-gradient"
      x1="7"
      y1="5"
      x2="59"
      y2="62"
      gradientUnits="userSpaceOnUse"
    >
      <stop offset="0" stop-color="#FFB15C" />
      <stop offset="0.42" stop-color="#FF5A36" />
      <stop offset="0.72" stop-color="#D64FD8" />
      <stop offset="1" stop-color="#8D63FF" />
    </linearGradient>

    <linearGradient
      id="nimomark-favicon-highlight"
      x1="13"
      y1="10"
      x2="46"
      y2="49"
      gradientUnits="userSpaceOnUse"
    >
      <stop offset="0" stop-color="#FFFFFF" stop-opacity="0.44" />
      <stop offset="1" stop-color="#FFFFFF" stop-opacity="0" />
    </linearGradient>

    <filter
      id="nimomark-favicon-shadow"
      x="-20%"
      y="-20%"
      width="140%"
      height="140%"
      color-interpolation-filters="sRGB"
    >
      <feDropShadow
        dx="0"
        dy="4"
        stdDeviation="4"
        flood-color="#101012"
        flood-opacity="0.2"
      />
    </filter>
  </defs>

  <g filter="url(#nimomark-favicon-shadow)">
    <circle
      cx="32"
      cy="32"
      r="28"
      fill="url(#nimomark-favicon-gradient)"
    />

    <circle
      cx="32"
      cy="32"
      r="27.25"
      stroke="#FFFFFF"
      stroke-opacity="0.24"
      stroke-width="1.5"
    />

    <path
      d="M11.7 15.1C20.6 7.3 35.7 5.2 47.6 12.4C32.7 11.9 20.4 18.5 13.5 29.2C10.7 24.8 10 19.9 11.7 15.1Z"
      fill="url(#nimomark-favicon-highlight)"
    />

    <path
      d="M17 47V17H24.2L39.8 37.4V17H47V47H39.8L24.2 26.6V47H17Z"
      fill="#FFFFFF"
    />

    <path
      d="M23.8 17L47 47H39.7L16.7 17H23.8Z"
      fill="#101012"
      fill-opacity="0.16"
    />

    <path
      d="M21.5 21.8V42.2"
      stroke="#FFFFFF"
      stroke-opacity="0.3"
      stroke-width="1.2"
      stroke-linecap="round"
    />

    <path
      d="M42.5 21.8V42.2"
      stroke="#FFFFFF"
      stroke-opacity="0.3"
      stroke-width="1.2"
      stroke-linecap="round"
    />
  </g>
</svg>